<?xml version="1.0" encoding="UTF-8" standalone="no"?>
<svg width="42px" height="36px" viewBox="0 0 42 36" version="1.1" xmlns="http://www.w3.org/2000/svg" xmlns:xlink="http://www.w3.org/1999/xlink">
    <!-- Generator: Sketch 51.2 (57519) - http://www.bohemiancoding.com/sketch -->
    <desc>Created with Sketch.</desc>
    <defs></defs>
    <g id="Page-1" stroke="none" stroke-width="1" fill="none" fill-rule="evenodd" opacity="0.600000024">
        <g id="h5导航-list" transform="translate(-36.000000, -245.000000)" fill="#000000">
            <g id="导航" transform="translate(0.000000, -1.000000)">
                <g id="头部导航" transform="translate(0.000000, 197.000000)">
                    <path d="M38,65 L76,65 C77.1045695,65 78,65.8954305 78,67 C78,68.1045695 77.1045695,69 76,69 L38,69 C36.8954305,69 36,68.1045695 36,67 C36,65.8954305 36.8954305,65 38,65 Z M38,49 L76,49 C77.1045695,49 78,49.8954305 78,51 C78,52.1045695 77.1045695,53 76,53 L38,53 C36.8954305,53 36,52.1045695 36,51 C36,49.8954305 36.8954305,49 38,49 Z M38,81 L76,81 C77.1045695,81 78,81.8954305 78,83 C78,84.1045695 77.1045695,85 76,85 L38,85 C36.8954305,85 36,84.1045695 36,83 C36,81.8954305 36.8954305,81 38,81 Z" id="侧边栏"></path>
                </g>
            </g>
        </g>
    </g>
</svg>